<svg width="174" height="174" viewBox="0 0 174 174" fill="none" xmlns="http://www.w3.org/2000/svg">
<rect width="174" height="174" rx="23" fill="#0A0C0A"/>
<rect x="0.5" y="0.5" width="173" height="173" rx="22.5" stroke="#FFB800" stroke-opacity="0.2"/>
<path d="M86.995 116.863C80.0781 115.121 74.368 111.153 69.8646 104.957C65.3611 98.7621 63.1094 91.8826 63.1094 84.3188V66.1061L86.995 57.149L110.881 66.1061V84.3188C110.881 91.8826 108.629 98.7621 104.125 104.957C99.622 111.153 93.9119 115.121 86.995 116.863ZM86.995 110.593C91.8219 109.1 95.8526 106.152 99.0871 101.748C102.322 97.3439 104.213 92.43 104.76 87.0059H86.995V63.4936L69.0808 70.2114V84.3188C69.0808 84.8662 69.0808 85.3141 69.0808 85.6624C69.0808 86.0107 69.1306 86.4586 69.2301 87.0059H86.995V110.593Z" fill="#FFB800"/>
</svg>
